<?xml version="1.0" standalone="no"?>
<!DOCTYPE svg PUBLIC "-//W3C//DTD SVG 1.0//EN" "http://www.w3.org/TR/2001/REC-SVG-20010904/DTD/svg10.dtd">
<svg xmlns="http://www.w3.org/2000/svg" xmlns:xlink="http://www.w3.org/1999/xlink" id="body_1" width="24" height="24">

<defs>
    <clipPath  id="1">

    <path id=""  clip-rule="evenodd" transform="matrix(1 0 0 1 0 0)"  d="M18 0L18 18L18 18L0 18L0 18L0 0L0 0L18 0z" />    </clipPath>
</defs>

<g transform="matrix(1.3333 0 0 1.3333 0 0)">
	<g clip-path="url(#1)" >
    <path id=""  transform="matrix(1 0 0 -1 0 18)"  d="M14.777681 9L14.777681 9L14.777681 9L8.409342 2.4547622L8.409342 2.4547622L8.409342 2.4547622C 8.192701 2.2321038 8.197579 1.875982 8.4202385 1.6593416L8.4202385 1.6593416L8.4202385 1.6593416C 8.642896 1.4427012 8.999018 1.4475796 9.215658 1.6702378L9.215658 1.6702378L15.965658 8.6077385C 16.178114 8.826095 16.178114 9.173905 15.965658 9.3922615L15.965658 9.3922615L9.215658 16.329762C 8.999018 16.55242 8.642896 16.557299 8.4202385 16.340658L8.4202385 16.340658L8.4202385 16.340658C 8.197579 16.124018 8.192701 15.767896 8.409342 15.5452385L8.409342 15.5452385L14.777681 9z" stroke="none" fill="#212121" fill-rule="nonzero" />
	</g>
</g>
</svg>